<svg width="44" height="44" viewBox="0 0 44 44" fill="none" xmlns="http://www.w3.org/2000/svg">
<path d="M36.7031 28.275V32.1719C36.7031 34.7094 34.7094 36.7031 32.1719 36.7031H11.3281C8.79062 36.7031 6.79688 34.7094 6.79688 32.1719V19.9375" stroke="white" stroke-width="3" stroke-miterlimit="10" stroke-linecap="round" stroke-linejoin="round"/>
<path d="M6.79688 13.775V11.3281C6.79688 8.79062 8.79062 6.79688 11.3281 6.79688H32.1719C34.7094 6.79688 36.7031 8.79062 36.7031 11.3281V22.2937" stroke="white" stroke-width="3" stroke-miterlimit="10" stroke-linecap="round" stroke-linejoin="round"/>
<path d="M6.79688 14.0469H36.7031" stroke="white" stroke-width="3" stroke-miterlimit="10" stroke-linecap="round" stroke-linejoin="round"/>
<path d="M13.1406 4.53125V8.60937" stroke="white" stroke-width="3" stroke-miterlimit="10" stroke-linecap="round" stroke-linejoin="round"/>
<path d="M30.3594 4.53125V8.60937" stroke="white" stroke-width="3" stroke-miterlimit="10" stroke-linecap="round" stroke-linejoin="round"/>
<path d="M13.5937 23.5625C14.5948 23.5625 15.4062 22.751 15.4062 21.75C15.4062 20.749 14.5948 19.9375 13.5937 19.9375C12.5927 19.9375 11.7812 20.749 11.7812 21.75C11.7812 22.751 12.5927 23.5625 13.5937 23.5625Z" fill="white"/>
<path d="M21.75 23.5625C22.751 23.5625 23.5625 22.751 23.5625 21.75C23.5625 20.749 22.751 19.9375 21.75 19.9375C20.749 19.9375 19.9375 20.749 19.9375 21.75C19.9375 22.751 20.749 23.5625 21.75 23.5625Z" fill="white"/>
<path d="M29.9062 23.5625C30.9073 23.5625 31.7187 22.751 31.7187 21.75C31.7187 20.749 30.9073 19.9375 29.9062 19.9375C28.9052 19.9375 28.0938 20.749 28.0938 21.75C28.0938 22.751 28.9052 23.5625 29.9062 23.5625Z" fill="white"/>
<path d="M13.5937 30.8125C14.5948 30.8125 15.4062 30.001 15.4062 29C15.4062 27.999 14.5948 27.1875 13.5937 27.1875C12.5927 27.1875 11.7812 27.999 11.7812 29C11.7812 30.001 12.5927 30.8125 13.5937 30.8125Z" fill="white"/>
<path d="M21.75 30.8125C22.751 30.8125 23.5625 30.001 23.5625 29C23.5625 27.999 22.751 27.1875 21.75 27.1875C20.749 27.1875 19.9375 27.999 19.9375 29C19.9375 30.001 20.749 30.8125 21.75 30.8125Z" fill="white"/>
<path d="M29.9062 32.625C31.9083 32.625 33.5312 31.002 33.5312 29C33.5312 26.998 31.9083 25.375 29.9062 25.375C27.9042 25.375 26.2812 26.998 26.2812 29C26.2812 31.002 27.9042 32.625 29.9062 32.625Z" fill="white"/>
</svg>
