<svg width="38" height="38" viewBox="0 0 38 38" fill="none" xmlns="http://www.w3.org/2000/svg">
<path d="M18.7895 0C8.41299 0 0 8.43436 0 18.8372C0 29.2401 8.41299 37.6744 18.7895 37.6744C29.166 37.6744 37.5789 29.2401 37.5789 18.8372C37.5789 8.43436 29.166 0 18.7895 0ZM25.336 12.5581H22.6288C20.944 12.5581 20.3553 13.4498 20.3553 15.255V17.2674H25.2938L24.6236 21.9767H20.3553V34.4564C19.8401 34.5066 19.3187 34.5349 18.7895 34.5349C17.7169 34.5349 16.6694 34.425 15.6579 34.2194V21.9767H10.9605V17.2674H15.6579V14.7385C15.6579 9.95076 17.9847 7.84884 21.9539 7.84884C23.8548 7.84884 24.86 7.99012 25.336 8.05448V12.5581Z" fill="white"/>
</svg>
