<svg width="49" height="49" viewBox="0 0 49 49" fill="none" xmlns="http://www.w3.org/2000/svg">
<path d="M24.5 3.2666C12.7923 3.2666 3.26666 12.7922 3.26666 24.4999C3.26666 36.2077 12.7923 45.7333 24.5 45.7333C36.2077 45.7333 45.7333 36.2077 45.7333 24.4999C45.7333 12.7922 36.2077 3.2666 24.5 3.2666ZM19.0545 9.79993H29.9423C35.0465 9.79993 39.2 13.9519 39.2 19.0544V29.9423C39.2 35.0464 35.048 39.1999 29.9455 39.1999H19.0577C13.9535 39.1999 9.8 35.048 9.8 29.9454V19.0576C9.8 13.9535 13.952 9.79993 19.0545 9.79993ZM19.0545 13.0666C15.7535 13.0666 13.0667 15.755 13.0667 19.0576V29.9454C13.0667 33.2464 15.7551 35.9333 19.0577 35.9333H29.9455C33.2465 35.9333 35.9333 33.2449 35.9333 29.9423V19.0544C35.9333 15.7535 33.2449 13.0666 29.9423 13.0666H19.0545ZM32.1243 15.7878C32.7254 15.7878 33.2122 16.2745 33.2122 16.8756C33.2122 17.4767 32.7254 17.9666 32.1243 17.9666C31.5233 17.9666 31.0333 17.4767 31.0333 16.8756C31.0333 16.2745 31.5233 15.7878 32.1243 15.7878ZM24.5 16.3333C29.0031 16.3333 32.6667 19.9968 32.6667 24.4999C32.6667 29.003 29.0031 32.6666 24.5 32.6666C19.9969 32.6666 16.3333 29.003 16.3333 24.4999C16.3333 19.9968 19.9969 16.3333 24.5 16.3333ZM24.5 19.5999C23.2004 19.5999 21.9541 20.1162 21.0352 21.0351C20.1162 21.954 19.6 23.2004 19.6 24.4999C19.6 25.7995 20.1162 27.0458 21.0352 27.9648C21.9541 28.8837 23.2004 29.3999 24.5 29.3999C25.7996 29.3999 27.0459 28.8837 27.9648 27.9648C28.8837 27.0458 29.4 25.7995 29.4 24.4999C29.4 23.2004 28.8837 21.954 27.9648 21.0351C27.0459 20.1162 25.7996 19.5999 24.5 19.5999Z" fill="white"/>
</svg>
