<svg width="96" height="96" viewBox="0 0 96 96" fill="none" xmlns="http://www.w3.org/2000/svg">
<path d="M84.0234 34.6377C80.1738 25.3377 75.3603 23.3877 72 23.3877C67.9082 23.4502 63.8894 24.4807 60.2724 26.3949C58.0831 27.4883 55.7722 28.3187 53.3877 28.869C52.7136 29.0095 52.1083 29.3777 51.6735 29.9118C51.2388 30.4458 51.0009 31.1132 51 31.8018C50.9998 32.0095 51.0215 32.2166 51.0645 32.4198C51.2282 33.1976 51.6935 33.8789 52.3585 34.3144C53.0234 34.7498 53.8339 34.9041 54.6123 34.7433C57.4316 34.1026 60.1661 33.1336 62.7597 31.8561C65.6004 30.3119 68.7677 29.4658 72 29.3877C74.3643 29.3877 76.4208 32.6952 77.4375 34.6656C80.9636 42.635 82.7675 51.259 82.7313 59.9736C82.9123 62.1084 82.6213 64.2569 81.879 66.2667C80.2383 67.9044 72.8907 63.7968 68.0244 61.0767C61.2714 57.2967 54.2871 53.3892 48 53.3892C41.7129 53.3892 34.7286 57.2973 27.9756 61.0767C23.1156 63.7983 15.7656 67.8999 14.1798 66.3327C13.4046 64.2737 13.0993 62.0676 13.2861 59.8755C13.2476 51.1946 15.0458 42.6038 18.5625 34.6671C19.5792 32.6952 21.6357 29.3877 24 29.3877C27.2902 29.4478 30.5169 30.3037 33.4044 31.8822C35.9491 33.1482 38.6348 34.1081 41.4054 34.7418C41.7909 34.823 42.1887 34.8274 42.5759 34.7549C42.9631 34.6824 43.3323 34.5343 43.6623 34.3191C43.9923 34.1039 44.2767 33.8258 44.4992 33.5007C44.7217 33.1756 44.878 32.8098 44.9592 32.4243C45.0404 32.0388 45.0448 31.6411 44.9723 31.2538C44.8998 30.8666 44.7517 30.4974 44.5365 30.1674C44.3213 29.8374 44.0432 29.553 43.7181 29.3305C43.393 29.108 43.0272 28.9517 42.6417 28.8705C40.3097 28.3273 38.0506 27.5086 35.9121 26.4315C32.2429 24.4765 28.1573 23.4326 24 23.3877C20.64 23.3877 15.8262 25.3377 11.9766 34.6377C8.97307 42.6187 7.3772 51.0603 7.26001 59.5869C7.26001 64.5411 8.02471 68.6544 9.87931 70.5087C14.7309 75.3687 22.5852 70.9689 30.9057 66.3135C36.7065 63.0675 43.2807 59.3877 48.0003 59.3877C52.7199 59.3877 59.2941 63.0675 65.0949 66.3135C70.8459 69.5304 76.3749 72.624 80.8449 72.624C81.8224 72.652 82.7953 72.4786 83.703 72.1147C84.6106 71.7508 85.4338 71.2042 86.1213 70.5087C87.9759 68.6544 88.7406 64.5411 88.7406 59.5869C88.6232 51.0602 87.0272 42.6186 84.0234 34.6377Z" fill="#fff"/>
<path d="M66 41.388C67.6569 41.388 69 40.0448 69 38.388C69 36.7311 67.6569 35.388 66 35.388C64.3431 35.388 63 36.7311 63 38.388C63 40.0448 64.3431 41.388 66 41.388Z" fill="#fff"/>
<path d="M66 53.364C67.6569 53.364 69 52.0209 69 50.364C69 48.7071 67.6569 47.364 66 47.364C64.3431 47.364 63 48.7071 63 50.364C63 52.0209 64.3431 53.364 66 53.364Z" fill="#fff"/>
<path d="M72 47.388C73.6569 47.388 75 46.0448 75 44.388C75 42.7311 73.6569 41.388 72 41.388C70.3431 41.388 69 42.7311 69 44.388C69 46.0448 70.3431 47.388 72 47.388Z" fill="#fff"/>
<path d="M60 47.412C61.6569 47.412 63 46.0688 63 44.412C63 42.7551 61.6569 41.412 60 41.412C58.3431 41.412 57 42.7551 57 44.412C57 46.0688 58.3431 47.412 60 47.412Z" fill="#fff"/>
<path d="M30 53.3877C30.7956 53.3877 31.5587 53.0716 32.1213 52.509C32.6839 51.9464 33 51.1833 33 50.3877V47.3877H36C36.7956 47.3877 37.5587 47.0716 38.1213 46.509C38.6839 45.9464 39 45.1833 39 44.3877C39 43.592 38.6839 42.829 38.1213 42.2664C37.5587 41.7038 36.7956 41.3877 36 41.3877H33V38.3877C33 37.592 32.6839 36.829 32.1213 36.2664C31.5587 35.7038 30.7956 35.3877 30 35.3877C29.2044 35.3877 28.4413 35.7038 27.8787 36.2664C27.3161 36.829 27 37.592 27 38.3877V41.3877H24C23.2044 41.3877 22.4413 41.7038 21.8787 42.2664C21.3161 42.829 21 43.592 21 44.3877C21 45.1833 21.3161 45.9464 21.8787 46.509C22.4413 47.0716 23.2044 47.3877 24 47.3877H27V50.3877C27 51.1833 27.3161 51.9464 27.8787 52.509C28.4413 53.0716 29.2044 53.3877 30 53.3877Z" fill="#fff"/>
</svg>
