<svg width="46" height="46" viewBox="0 0 46 46" fill="none" xmlns="http://www.w3.org/2000/svg">
<path d="M46 34.4998C46 35.5083 45.7163 36.4431 45.2619 37.2656L30.7379 21.0153L45.1045 8.44576C45.6634 9.33265 46 10.3745 46 11.5002V34.4998ZM23 23.9659L42.9907 6.47449C42.1704 6.02541 41.2466 5.75 40.2501 5.75H5.74996C4.75225 5.75 3.82819 6.02541 3.01117 6.47449L23 23.9659ZM28.5733 22.9076L23.946 26.959C23.6753 27.1948 23.3383 27.3125 23 27.3125C22.6616 27.3125 22.3246 27.1948 22.0539 26.959L17.4256 22.9075L2.71775 39.3656C3.59933 39.9186 4.63251 40.25 5.74987 40.25H40.2501C41.3673 40.25 42.401 39.9186 43.2822 39.3656L28.5733 22.9076ZM0.895709 8.44566C0.336934 9.33255 0 10.3744 0 11.5002V34.4999C0 35.5084 0.282327 36.4432 0.738429 37.2657L15.2608 21.0125L0.895709 8.44566Z" fill="white"/>
</svg>
