<svg width="41" height="41" viewBox="0 0 41 41" fill="none" xmlns="http://www.w3.org/2000/svg">
<path d="M15.1915 20.2716C13.8951 18.3953 13.1239 16.1316 12.9648 15.9392C14.8635 14.6155 18.5769 12.9521 18.7848 10.5653C19.0494 7.48153 13.8248 1.03477 12.8232 0.976196C10.0821 1.00548 5.06545 5.64434 4.47095 7.04615C3.3659 9.94446 3.91355 12.6417 5.81321 16.5464C8.23221 22.3548 17.2171 33.373 22.3567 36.8317C25.7578 39.442 28.2422 40.467 31.2088 39.8481C32.5882 39.5865 37.5697 35.4992 38.0685 32.7356C38.1905 31.7106 32.3998 24.9153 29.4048 24.6459C27.0795 24.4311 24.8499 27.9122 23.2519 29.6137C23.0928 29.4107 21.73 28.3476 20.2677 26.6646C18.3641 24.6644 16.5952 22.3147 15.1915 20.2716Z" fill="white"/>
</svg>
