<svg width="42" height="38" viewBox="0 0 42 38" fill="none" xmlns="http://www.w3.org/2000/svg">
<path d="M40.5495 0.516888C39.8445 -0.0809515 38.7372 -0.166491 37.5923 0.293169H37.5904C36.3863 0.776329 3.50508 14.8801 2.16652 15.4563C1.92306 15.5409 -0.20322 16.3343 0.0158003 18.1015C0.21132 19.6948 1.92024 20.3546 2.12892 20.4308L10.4883 23.2931C11.0429 25.1392 13.0874 31.9505 13.5396 33.4056C13.8216 34.3127 14.2812 35.5046 15.0868 35.75C15.7937 36.0226 16.4968 35.7735 16.9518 35.4163L22.0626 30.6759L30.3129 37.1101L30.5094 37.2276C31.0696 37.4758 31.6064 37.5999 32.1187 37.5999C32.5144 37.5999 32.8942 37.5256 33.257 37.3771C34.4931 36.8695 34.9876 35.6917 35.0393 35.5582L41.2019 3.52583C41.5779 1.81503 41.0553 0.944589 40.5495 0.516888ZM17.8608 24.438L15.0408 31.958L12.2208 22.558L33.8408 6.57801L17.8608 24.438Z" fill="white"/>
</svg>
