<svg width="96" height="96" viewBox="0 0 96 96" fill="none" xmlns="http://www.w3.org/2000/svg">
<path d="M28.8482 28.35C29.2042 28.5278 29.6163 28.5569 29.9939 28.4309C30.3714 28.3049 30.6833 28.0341 30.8612 27.678C31.039 27.3219 31.0681 26.9098 30.9421 26.5323C30.8161 26.1548 30.5452 25.8428 30.1892 25.665C28.6732 24.9001 27.2419 23.9781 25.9187 22.914C27.4148 21.0073 28.5282 18.8293 29.1977 16.5H31.0187C31.4165 16.5 31.798 16.342 32.0793 16.0607C32.3606 15.7794 32.5187 15.3978 32.5187 15C32.5187 14.6022 32.3606 14.2206 32.0793 13.9393C31.798 13.658 31.4165 13.5 31.0187 13.5H25.0187V12C25.0187 11.6022 24.8606 11.2206 24.5793 10.9393C24.298 10.658 23.9165 10.5 23.5187 10.5C23.1209 10.5 22.7393 10.658 22.458 10.9393C22.1767 11.2206 22.0187 11.6022 22.0187 12V13.5H16.0187C15.6209 13.5 15.2393 13.658 14.958 13.9393C14.6767 14.2206 14.5187 14.6022 14.5187 15C14.5187 15.3978 14.6767 15.7794 14.958 16.0607C15.2393 16.342 15.6209 16.5 16.0187 16.5H26.0522C25.4996 18.0848 24.6948 19.5699 23.6687 20.898C22.9752 20.2051 22.3372 19.4588 21.7607 18.666C21.5387 18.3375 21.1957 18.1102 20.8067 18.0339C20.4176 17.9575 20.0142 18.0383 19.6845 18.2585C19.3549 18.4788 19.1258 18.8206 19.0474 19.2092C18.969 19.5978 19.0477 20.0017 19.2662 20.3325C19.9566 21.306 20.73 22.2179 21.5777 23.058C20.237 24.1753 18.6976 25.0298 17.0402 25.5765C16.6622 25.7022 16.3497 25.9729 16.1714 26.329C15.993 26.6852 15.9635 27.0976 16.0892 27.4755C16.2149 27.8534 16.4856 28.1659 16.8417 28.3443C17.1979 28.5226 17.6102 28.5522 17.9882 28.4265C20.1379 27.7224 22.1235 26.5918 23.8262 25.1025C25.3769 26.3647 27.0609 27.4536 28.8482 28.35Z" fill="#F9F0A4"/>
<path d="M42.9422 21H65.6132C66.7815 21.0012 67.9016 21.4659 68.7276 22.2922C69.5536 23.1185 70.0179 24.2387 70.0187 25.407V39L68.2187 36.6C68.1005 36.4424 67.9525 36.3097 67.783 36.2093C67.6135 36.1089 67.4259 36.0429 67.2309 36.0151C67.0359 35.9872 66.8373 35.9981 66.6465 36.0469C66.4556 36.0958 66.2763 36.1818 66.1187 36.3C65.9611 36.4182 65.8284 36.5663 65.728 36.7358C65.6277 36.9053 65.5617 37.0929 65.5338 37.2879C65.5059 37.4829 65.5168 37.6815 65.5657 37.8723C65.6145 38.0631 65.7005 38.2424 65.8187 38.4L70.3187 44.4C70.4584 44.5863 70.6396 44.7375 70.8479 44.8417C71.0562 44.9458 71.2859 45 71.5187 45C71.6798 44.9996 71.8397 44.9738 71.9927 44.9235C72.2915 44.824 72.5514 44.6329 72.7356 44.3774C72.9197 44.1219 73.0188 43.815 73.0187 43.5V25.407C73.0167 23.4434 72.2359 21.5608 70.8476 20.1722C69.4593 18.7836 67.5768 18.0024 65.6132 18H42.9422C42.5544 12.9732 40.2346 8.29194 36.4698 4.93858C32.7049 1.58522 27.7875 -0.179594 22.7494 0.0144638C17.7114 0.208522 12.9443 2.34636 9.44856 5.9794C5.95277 9.61243 4 14.4582 4 19.5C4 24.5418 5.95277 29.3876 9.44856 33.0206C12.9443 36.6537 17.7114 38.7915 22.7494 38.9856C27.7875 39.1796 32.7049 37.4148 36.4698 34.0615C40.2346 30.7081 42.5544 26.0268 42.9422 21ZM7.01872 19.5C7.01872 16.2366 7.98643 13.0465 9.79947 10.3331C11.6125 7.61969 14.1895 5.50485 17.2044 4.256C20.2194 3.00716 23.537 2.6804 26.7377 3.31706C29.9384 3.95371 32.8784 5.52519 35.186 7.83275C37.4936 10.1403 39.065 13.0803 39.7017 16.281C40.3383 19.4817 40.0116 22.7993 38.7627 25.8143C37.5139 28.8293 35.399 31.4062 32.6856 33.2193C29.9722 35.0323 26.7821 36 23.5187 36C19.1442 35.9949 14.9504 34.2548 11.8572 31.1616C8.76393 28.0683 7.02388 23.8745 7.01872 19.5Z" fill="#F9F0A4"/>
<path d="M71.5187 48C66.6108 48.0079 61.886 49.8648 58.2862 53.2008C54.6864 56.5369 52.4758 61.1069 52.0952 66H29.4257C28.2574 65.9992 27.1371 65.5348 26.3109 64.7089C25.4846 63.8829 25.0199 62.7628 25.0187 61.5945V48L26.8187 50.4C27.0574 50.7183 27.4127 50.9287 27.8065 50.9849C28.2004 51.0412 28.6004 50.9387 28.9187 50.7C29.2369 50.4613 29.4473 50.106 29.5036 49.7121C29.5599 49.3183 29.4574 48.9183 29.2187 48.6L24.7187 42.6C24.5298 42.3481 24.2664 42.1621 23.9659 42.0682C23.6654 41.9744 23.343 41.9774 23.0443 42.077C22.7457 42.1765 22.4859 42.3675 22.3018 42.6229C22.1177 42.8783 22.0187 43.1852 22.0187 43.5V61.5945C22.0211 63.5581 22.8023 65.4405 24.1909 66.8289C25.5795 68.2172 27.4621 68.998 29.4257 69H52.0952C52.3887 72.7797 53.7781 76.3917 56.0932 79.3937C58.4083 82.3958 61.5486 84.6575 65.1296 85.902C68.7105 87.1464 72.5767 87.3195 76.2546 86.4001C79.9324 85.4808 83.2623 83.5088 85.8365 80.7257C88.4107 77.9426 90.1174 74.4692 90.7475 70.7309C91.3777 66.9926 90.904 63.1516 89.3844 59.6785C87.8649 56.2053 85.3654 53.2506 82.1922 51.1764C79.019 49.1021 75.3097 47.9982 71.5187 48ZM71.5187 84C68.2553 84 65.0652 83.0323 62.3518 81.2192C59.6384 79.4062 57.5235 76.8293 56.2747 73.8143C55.0258 70.7993 54.6991 67.4817 55.3357 64.281C55.9724 61.0803 57.5438 58.1403 59.8514 55.8327C62.159 53.5252 65.099 51.9537 68.2997 51.317C71.5004 50.6804 74.818 51.0071 77.833 52.256C80.8479 53.5048 83.4249 55.6197 85.2379 58.3331C87.051 61.0465 88.0187 64.2366 88.0187 67.5C88.0135 71.8745 86.2735 76.0683 83.1802 79.1616C80.087 82.2548 75.8932 83.9948 71.5187 84Z" fill="#F9F0A4"/>
<path d="M72.8688 59.3295C72.7302 59.097 72.5336 58.9046 72.2982 58.7709C72.0629 58.6372 71.7969 58.5669 71.5263 58.5669C71.2556 58.5669 70.9896 58.6372 70.7543 58.7709C70.5189 58.9046 70.3224 59.097 70.1838 59.3295L62.6838 74.3295C62.5059 74.6856 62.4768 75.0977 62.6029 75.4752C62.7289 75.8527 62.9997 76.1647 63.3558 76.3425C63.7118 76.5203 64.1239 76.5494 64.5014 76.4234C64.8789 76.2974 65.1909 76.0266 65.3688 75.6705L71.5188 63.354L74.3418 69H71.5188C71.1209 69 70.7394 69.158 70.4581 69.4393C70.1768 69.7207 70.0188 70.1022 70.0188 70.5C70.0188 70.8978 70.1768 71.2794 70.4581 71.5607C70.7394 71.842 71.1209 72 71.5188 72H75.8418L77.6763 75.6705C77.8541 76.0266 78.1661 76.2974 78.5436 76.4234C78.9211 76.5494 79.3332 76.5203 79.6893 76.3425C80.0453 76.1647 80.3161 75.8527 80.4422 75.4752C80.5682 75.0977 80.5391 74.6856 80.3613 74.3295L72.8688 59.3295Z" fill="#F9F0A4"/>
</svg>
