<svg width="96" height="96" viewBox="0 0 96 96" fill="none" xmlns="http://www.w3.org/2000/svg">
<path d="M94.125 67.6875H90.3289C89.3965 47.8572 73.634 31.656 54.2051 28.7695C55.0217 27.5691 55.5 26.1204 55.5 24.5625C55.5 20.4272 52.1353 17.0625 48 17.0625C43.8647 17.0625 40.5 20.4272 40.5 24.5625C40.5 26.1204 40.9783 27.5691 41.7942 28.7695C22.6589 31.6121 6.61597 47.5767 5.67114 67.6875H1.875C0.839355 67.6875 0 68.5269 0 69.5625C0 74.7319 4.20557 78.9375 9.375 78.9375H86.625C91.7944 78.9375 96 74.7319 96 69.5625C96 68.5269 95.1606 67.6875 94.125 67.6875ZM44.25 24.5625C44.25 22.4949 45.9324 20.8125 48 20.8125C50.0676 20.8125 51.75 22.4949 51.75 24.5625C51.75 26.6301 50.0676 28.3125 48 28.3125C45.9324 28.3125 44.25 26.6301 44.25 24.5625ZM48 32.0625C68.2896 32.0625 85.5286 48.1904 86.5745 67.6875H9.42554C10.4714 48.1904 27.7104 32.0625 48 32.0625ZM86.625 75.1875H9.375C6.93018 75.1875 4.84497 73.6187 4.07153 71.4353H91.9285C91.155 73.6187 89.0698 75.1875 86.625 75.1875Z" fill="#F9F0A4"/>
<path d="M49.875 37.6875C49.875 38.7231 49.0356 39.5625 48 39.5625C46.9644 39.5625 46.125 38.7231 46.125 37.6875C46.125 36.6519 46.9644 35.8125 48 35.8125C49.0356 35.8125 49.875 36.6519 49.875 37.6875Z" fill="#F9F0A4"/>
<path d="M80.7041 57.6489C76.9519 47.7363 67.8083 39.8064 56.841 36.9529C55.8406 36.6929 54.8152 37.2935 54.5544 38.2954C54.2937 39.2981 54.8943 40.3213 55.897 40.582C65.7063 43.1345 73.8684 50.1826 77.1973 58.9761C77.5649 59.9465 78.6482 60.4321 79.615 60.0659C80.5825 59.6997 81.071 58.6172 80.7041 57.6489Z" fill="#F9F0A4"/>
</svg>
