<svg xmlns="http://www.w3.org/2000/svg" fill="none" viewBox="0 0 243 41" width="243" height="70"><path stroke="#FEFEFE" stroke-miterlimit="22.926" stroke-width=".756" d="M32.779 3.624 30.977 9.32s-10.989-5.473-18.315 1.452C5.335 17.696 9.718 26.63 9.779 26.798M33.29 3.552s-13.187-6.275-23.512.854c-10.325 7.128-8.65 17.228-8.715 17.199-.064-.029.163 11.047 8.175 15.859 8.01 4.812 20.472 1.744 23.367.85l-1.629-5.987c-17.295 6.142-21.3-5.762-21.3-5.762"/><path fill="#FEFEFE" fill-rule="evenodd" stroke="#FEFEFE" stroke-miterlimit="22.926" stroke-width=".756" d="M43.048 1.893h7.746v37.749h-7.986l.24-37.75zM64.606 1.893h7.867l16.395 24.905V1.837h7.326v37.805h-7.207L72.173 15.211v24.431h-7.266l-.3-37.75zM112.648 1.837h23.301v6.087h-15.614v8.711h14.472v6.087h-14.652v11h16.514v6.143h-24.081l.06-38.028zM157.867 39.865h-7.146l2.762-38.028h8.648l9.308 25.073 10.089-25.073h8.527l2.642 37.805h-7.446l-1.681-23.733-9.489 23.733h-5.405l-9.488-24.068-1.321 24.291zM205.789 39.865h7.806l4.204-11.224h11.59l4.444 11.224H242L227.588 1.837h-7.507l-14.292 38.028z" clip-rule="evenodd"/></svg>